
<svg viewBox="0 0 200 200" xmlns="http://www.w3.org/2000/svg">
  <mask id = "mask0" mask-type="alpha">
        <path fill="#BAE6FF" d="M38.3,-54.1C51.6,-43.1,65.8,-34.5,71.8,-21.9C77.8,-9.3,75.7,7.3,70.1,22.3C64.6,37.3,55.6,50.7,43.3,60.8C31,70.9,15.5,77.7,-0.7,78.7C-17,79.7,-33.9,74.9,-47.7,65.3C-61.5,55.6,-72.1,41.3,-79,24.6C-85.8,8,-88.9,-11,-84.9,-28.9C-80.9,-46.9,-69.8,-63.8,-54.5,-74.2C-39.1,-84.6,-19.6,-88.3,-3.5,-83.5C12.5,-78.6,25,-65.1,38.3,-54.1Z" transform="translate(100 100)" />
  </mask>
  <g mask="url(#mask0)"> 
        <path fill="#BAE6FF" d="M38.3,-54.1C51.6,-43.1,65.8,-34.5,71.8,-21.9C77.8,-9.3,75.7,7.3,70.1,22.3C64.6,37.3,55.6,50.7,43.3,60.8C31,70.9,15.5,77.7,-0.7,78.7C-17,79.7,-33.9,74.9,-47.7,65.3C-61.5,55.6,-72.1,41.3,-79,24.6C-85.8,8,-88.9,-11,-84.9,-28.9C-80.9,-46.9,-69.8,-63.8,-54.5,-74.2C-39.1,-84.6,-19.6,-88.3,-3.5,-83.5C12.5,-78.6,25,-65.1,38.3,-54.1Z" transform="translate(100 100)" />
        <image xlink:href=""/>
  </g>
</svg>

<svg viewBox="0 0 200 200" xmlns="http://www.w3.org/2000/svg">
  <path fill="#FF0066" d="M61.4,-61.4C77.7,-45,87.8,-22.5,88.2,0.4C88.6,23.4,79.4,46.7,63.1,61.6C46.7,76.5,23.4,82.9,0.4,82.6C-22.6,82.2,-45.3,75.1,-61.8,60.2C-78.4,45.3,-88.8,22.6,-88.1,0.7C-87.4,-21.2,-75.5,-42.4,-58.9,-58.7C-42.4,-75.1,-21.2,-86.7,0.7,-87.4C22.5,-88.1,45,-77.8,61.4,-61.4Z" transform="translate(100 100)" />
</svg>